<svg width="264" height="264" viewBox="0 0 264 264" version="1.1" xmlns="http://www.w3.org/2000/svg" xmlns:xlink="http://www.w3.org/1999/xlink">
<title>Favicon</title>
<desc>Created using Figma</desc>
<g id="Canvas" transform="matrix(4 0 0 4 56 -4572)">
<g id="Favicon">
<g id="Rectangle">
<use xlink:href="#path0_fill" transform="translate(-14 1143)" fill="#FFFFFF"/>
</g>
<g id="Group">
<g id="Line">
<use xlink:href="#path1_stroke" transform="matrix(6.12323e-17 1 -1 6.12323e-17 0 1151)" fill="#3B3B3B"/>
</g>
<g id="C">
<use xlink:href="#path2_fill" transform="translate(6 1143)" fill="#3B3B3B"/>
</g>
</g>
</g>
</g>
<defs>
<path id="path0_fill" d="M 0 0L 66 0L 66 66L 0 66L 0 0Z"/>
<path id="path1_stroke" d="M 0 0L 50 0L 50 -2L 0 -2L 0 0Z"/>
<path id="path2_fill" d="M 16.272 49.576C 13.392 49.576 10.864 48.968 8.688 47.752C 6.512 46.536 4.832 44.824 3.648 42.616C 2.496 40.376 1.92 37.752 1.92 34.744C 1.92 31.544 2.64 28.664 4.08 26.104C 5.52 23.512 7.504 21.496 10.032 20.056C 12.592 18.584 15.472 17.848 18.672 17.848C 19.856 17.848 21.056 17.944 22.272 18.136C 23.52 18.296 24.56 18.472 25.392 18.664C 26.256 18.824 26.8 18.936 27.024 19L 27.216 19.288C 27.152 19.48 27.04 19.944 26.88 20.68C 26.752 21.416 26.592 22.376 26.4 23.56C 26.24 24.744 26.112 25.992 26.016 27.304L 23.712 27.496C 23.744 27.336 23.776 27.048 23.808 26.632C 23.84 26.184 23.856 25.688 23.856 25.144C 23.856 22.168 21.504 20.68 16.8 20.68C 14.688 20.68 12.832 21.192 11.232 22.216C 9.632 23.24 8.4 24.696 7.536 26.584C 6.672 28.44 6.24 30.632 6.24 33.16C 6.24 35.944 6.688 38.392 7.584 40.504C 8.512 42.616 9.808 44.264 11.472 45.448C 13.136 46.6 15.056 47.176 17.232 47.176C 19.408 47.176 21.152 46.568 22.464 45.352C 23.808 44.104 24.784 42.184 25.392 39.592L 27.696 39.4C 27.6 39.88 27.392 40.952 27.072 42.616C 26.752 44.248 26.528 45.784 26.4 47.224L 26.112 47.656C 26.112 47.688 25.616 47.88 24.624 48.232C 23.664 48.552 22.448 48.856 20.976 49.144C 19.536 49.432 17.968 49.576 16.272 49.576Z"/>
</defs>
</svg>
