<svg width="976" height="200" viewBox="0 0 976 200" version="1.1" xmlns="http://www.w3.org/2000/svg" xmlns:xlink="http://www.w3.org/1999/xlink">
<title>Circle Dark</title>
<desc>Created using Figma</desc>
<g id="Canvas" transform="matrix(4 0 0 4 164 -3936)">
<g id="Circle Dark">
<g id="Line">
<use xlink:href="#path0_stroke" transform="matrix(6.12323e-17 1 -1 6.12323e-17 6 984)" fill="#3B3B3B"/>
</g>
<g id="C653 Labs">
<use xlink:href="#path1_fill" transform="translate(12 976)" fill="#3B3B3B"/>
</g>
<g id="Group 2">
<g id="Ellipse">
<use xlink:href="#path2_fill" transform="translate(-41 988)" fill="#3B3B3B"/>
</g>
<g id="Vintage Keyboard Light">
<g id="Rectangle">
<use xlink:href="#path3_fill" transform="translate(-33 1003)" fill="#FFFFFF"/>
<mask id="mask0_outline_out">
<rect id="mask0_outline_inv" fill="white" x="-1" y="-1" width="27" height="14" transform="translate(-33 1003)"/>
<use xlink:href="#path3_fill" fill="black" transform="translate(-33 1003)"/>
</mask>
<g mask="url(#mask0_outline_out)">
<use xlink:href="#path4_stroke_2x" transform="translate(-33 1003)" fill="#3B3B3B"/>
</g>
</g>
<g id="Rectangle 2">
<use xlink:href="#path5_fill" transform="translate(-28 1011.57)" fill="#3B3B3B"/>
</g>
<g id="Ellipse">
<use xlink:href="#path6_fill" transform="translate(-31.3333 1011.57)" fill="#3B3B3B"/>
</g>
<g id="Ellipse">
<use xlink:href="#path6_fill" transform="translate(-29.6667 1008.14)" fill="#3B3B3B"/>
</g>
<g id="Ellipse">
<use xlink:href="#path6_fill" transform="translate(-26.3333 1008.14)" fill="#3B3B3B"/>
</g>
<g id="Ellipse">
<use xlink:href="#path6_fill" transform="translate(-23 1008.14)" fill="#3B3B3B"/>
</g>
<g id="Ellipse">
<use xlink:href="#path6_fill" transform="translate(-19.6667 1008.14)" fill="#3B3B3B"/>
</g>
<g id="Ellipse">
<use xlink:href="#path6_fill" transform="translate(-16.3333 1008.14)" fill="#3B3B3B"/>
</g>
<g id="Ellipse">
<use xlink:href="#path6_fill" transform="translate(-13 1008.14)" fill="#3B3B3B"/>
</g>
<g id="Ellipse">
<use xlink:href="#path6_fill" transform="translate(-31.3333 1004.71)" fill="#3B3B3B"/>
</g>
<g id="Ellipse">
<use xlink:href="#path6_fill" transform="translate(-28 1004.71)" fill="#3B3B3B"/>
</g>
<g id="Ellipse">
<use xlink:href="#path6_fill" transform="translate(-24.6667 1004.71)" fill="#3B3B3B"/>
</g>
<g id="Ellipse">
<use xlink:href="#path6_fill" transform="translate(-21.3333 1004.71)" fill="#3B3B3B"/>
</g>
<g id="Ellipse">
<use xlink:href="#path6_fill" transform="translate(-18 1004.71)" fill="#3B3B3B"/>
</g>
<g id="Ellipse">
<use xlink:href="#path6_fill" transform="translate(-14.6667 1004.71)" fill="#3B3B3B"/>
</g>
<g id="Ellipse">
<use xlink:href="#path6_fill" transform="translate(-11.3333 1004.71)" fill="#3B3B3B"/>
</g>
<g id="Ellipse 2">
<use xlink:href="#path6_fill" transform="translate(-11.3333 1011.57)" fill="#3B3B3B"/>
</g>
</g>
</g>
</g>
</g>
<defs>
<path id="path0_stroke" d="M 0 0L 50 0L 50 -2L 0 -2L 0 0Z"/>
<path id="path1_fill" d="M 16.272 49.576C 13.392 49.576 10.864 48.968 8.688 47.752C 6.512 46.536 4.832 44.824 3.648 42.616C 2.496 40.376 1.92 37.752 1.92 34.744C 1.92 31.544 2.64 28.664 4.08 26.104C 5.52 23.512 7.504 21.496 10.032 20.056C 12.592 18.584 15.472 17.848 18.672 17.848C 19.856 17.848 21.056 17.944 22.272 18.136C 23.52 18.296 24.56 18.472 25.392 18.664C 26.256 18.824 26.8 18.936 27.024 19L 27.216 19.288C 27.152 19.48 27.04 19.944 26.88 20.68C 26.752 21.416 26.592 22.376 26.4 23.56C 26.24 24.744 26.112 25.992 26.016 27.304L 23.712 27.496C 23.744 27.336 23.776 27.048 23.808 26.632C 23.84 26.184 23.856 25.688 23.856 25.144C 23.856 22.168 21.504 20.68 16.8 20.68C 14.688 20.68 12.832 21.192 11.232 22.216C 9.632 23.24 8.4 24.696 7.536 26.584C 6.672 28.44 6.24 30.632 6.24 33.16C 6.24 35.944 6.688 38.392 7.584 40.504C 8.512 42.616 9.808 44.264 11.472 45.448C 13.136 46.6 15.056 47.176 17.232 47.176C 19.408 47.176 21.152 46.568 22.464 45.352C 23.808 44.104 24.784 42.184 25.392 39.592L 27.696 39.4C 27.6 39.88 27.392 40.952 27.072 42.616C 26.752 44.248 26.528 45.784 26.4 47.224L 26.112 47.656C 26.112 47.688 25.616 47.88 24.624 48.232C 23.664 48.552 22.448 48.856 20.976 49.144C 19.536 49.432 17.968 49.576 16.272 49.576ZM 42.3349 32.488C 43.8709 32.488 45.2629 32.84 46.5109 33.544C 47.7909 34.216 48.7989 35.16 49.5349 36.376C 50.2709 37.56 50.6389 38.888 50.6389 40.36C 50.6389 42.088 50.2229 43.656 49.3909 45.064C 48.5589 46.472 47.4069 47.576 45.9349 48.376C 44.4949 49.176 42.8789 49.576 41.0869 49.576C 39.4229 49.576 37.9349 49.16 36.6229 48.328C 35.3109 47.464 34.2869 46.28 33.5509 44.776C 32.8149 43.24 32.4469 41.496 32.4469 39.544C 32.4469 35.288 33.8549 31.464 36.6709 28.072C 39.4869 24.648 43.3909 22.056 48.3829 20.296L 48.7189 20.536L 49.2469 21.976C 45.9509 23.352 43.2469 25.16 41.1349 27.4C 39.0229 29.608 37.5989 32.104 36.8629 34.888L 37.0069 34.984C 38.2229 34.216 39.3109 33.608 40.2709 33.16C 41.2309 32.712 41.9189 32.488 42.3349 32.488ZM 42.0469 47.272C 43.6149 47.272 44.8469 46.76 45.7429 45.736C 46.6389 44.712 47.0869 43.304 47.0869 41.512C 47.0869 40.392 46.8149 39.368 46.2709 38.44C 45.7589 37.48 45.0549 36.728 44.1589 36.184C 43.2949 35.608 42.3349 35.32 41.2789 35.32C 40.5109 35.32 39.6789 35.496 38.7829 35.848C 37.8869 36.168 37.1029 36.584 36.4309 37.096C 36.3349 37.8 36.2869 38.52 36.2869 39.256C 36.2869 41.72 36.7989 43.672 37.8229 45.112C 38.8469 46.552 40.2549 47.272 42.0469 47.272ZM 56.0108 54.04C 55.0188 54.04 54.2828 53.784 53.8027 53.272C 53.3228 52.792 53.0507 51.88 52.9868 50.536L 53.2267 50.248C 54.5707 50.536 55.8667 50.68 57.1147 50.68C 58.7788 50.68 60.2827 50.408 61.6267 49.864C 63.0028 49.32 64.0747 48.568 64.8428 47.608C 65.6427 46.648 66.0427 45.544 66.0427 44.296C 66.0427 43.24 65.7227 42.344 65.0828 41.608C 64.4748 40.872 63.4348 40.248 61.9627 39.736C 60.5227 39.192 58.5387 38.696 56.0108 38.248L 55.5788 37.72C 55.7708 35.352 55.9468 32.984 56.1068 30.616C 56.2667 28.248 56.3628 26.712 56.3947 26.008L 56.7787 25.624L 65.8508 25.24C 66.8107 25.176 67.4827 25.032 67.8668 24.808C 68.2828 24.552 68.6188 24.072 68.8748 23.368L 70.4587 23.176L 69.3068 28.84L 69.0187 29.128C 68.4427 29.096 67.1308 29.032 65.0828 28.936C 63.0347 28.808 60.8428 28.744 58.5067 28.744L 58.1707 34.792C 61.8507 35.656 64.6828 36.696 66.6667 37.912C 68.6827 39.096 69.6907 40.744 69.6907 42.856C 69.6907 44.712 68.9708 46.504 67.5308 48.232C 66.0908 49.96 64.2827 51.352 62.1068 52.408C 59.9628 53.496 57.9308 54.04 56.0108 54.04ZM 77.0197 54.04C 75.9318 54.04 75.1478 53.768 74.6677 53.224C 74.2197 52.68 73.9798 51.784 73.9478 50.536L 74.1878 50.248C 75.5318 50.536 76.8117 50.68 78.0278 50.68C 79.5957 50.68 81.0198 50.392 82.2997 49.816C 83.6117 49.272 84.6358 48.52 85.3718 47.56C 86.1398 46.568 86.5237 45.48 86.5237 44.296C 86.5237 42.664 85.8197 41.464 84.4117 40.696C 83.0358 39.896 80.8758 39.48 77.9317 39.448L 77.6918 39.208L 77.4518 37.528L 80.5717 36.76C 81.8518 36.152 82.8917 35.336 83.6917 34.312C 84.5238 33.256 84.9398 32.2 84.9398 31.144C 84.9398 30.152 84.5877 29.352 83.8838 28.744C 83.1797 28.104 82.2838 27.784 81.1957 27.784C 80.2998 27.784 79.3397 28.008 78.3158 28.456C 77.3238 28.904 76.4598 29.496 75.7237 30.232L 75.2438 30.232L 74.7637 28.216C 74.7637 28.184 75.2277 27.864 76.1557 27.256C 77.1158 26.616 78.1718 26.04 79.3238 25.528C 80.5078 25.016 81.6277 24.76 82.6837 24.76C 84.5717 24.76 86.0757 25.256 87.1957 26.248C 88.3478 27.208 88.9238 28.504 88.9238 30.136C 88.9238 31.416 88.4437 32.664 87.4838 33.88C 86.5237 35.096 85.2437 36.12 83.6437 36.952L 83.6437 37.192C 87.9637 38.184 90.1238 40.168 90.1238 43.144C 90.1238 44.808 89.4517 46.488 88.1077 48.184C 86.7958 49.88 85.1158 51.272 83.0677 52.36C 81.0198 53.48 79.0037 54.04 77.0197 54.04ZM 105.88 47.272C 107.128 47.08 107.976 46.712 108.424 46.168C 108.904 45.592 109.144 44.616 109.144 43.24L 109.192 23.08C 109.192 22.056 109.064 21.368 108.808 21.016C 108.584 20.664 108.12 20.488 107.416 20.488C 107.096 20.488 106.776 20.504 106.456 20.536C 106.136 20.568 105.912 20.584 105.784 20.584L 105.688 20.392L 106.024 18.28C 106.408 18.312 107.128 18.344 108.184 18.376C 109.24 18.408 110.312 18.424 111.4 18.424C 112.264 18.424 113.24 18.376 114.328 18.28C 115.448 18.152 116.184 18.056 116.536 17.992L 116.344 20.152C 115.288 20.28 114.552 20.488 114.136 20.776C 113.752 21.064 113.512 21.4 113.416 21.784C 113.352 22.168 113.272 23.112 113.176 24.616C 112.984 27.336 112.84 30.44 112.744 33.928C 112.648 37.416 112.6 40.488 112.6 43.144C 112.6 44.296 112.696 45.128 112.888 45.64C 113.08 46.12 113.432 46.44 113.944 46.6C 114.488 46.76 115.4 46.84 116.68 46.84C 118.632 46.84 120.056 46.68 120.952 46.36C 121.88 46.04 122.568 45.416 123.016 44.488C 123.496 43.56 123.928 42.072 124.312 40.024L 126.424 39.784L 126.568 40.024C 126.472 40.536 126.264 41.688 125.944 43.48C 125.656 45.272 125.4 47.16 125.176 49.144L 124.936 49.432C 124.008 49.368 122.088 49.272 119.176 49.144C 116.296 49.048 113.912 49 112.024 49C 110.52 49 109.144 49.064 107.896 49.192C 106.68 49.32 105.912 49.416 105.592 49.48L 105.88 47.272ZM 144.512 49.576C 141.92 49.576 140.496 48.28 140.24 45.688L 140.048 45.64C 138.896 46.792 137.84 47.704 136.88 48.376C 135.952 49.048 135.248 49.384 134.768 49.384C 132.976 49.384 131.504 48.824 130.352 47.704C 129.2 46.584 128.624 45.16 128.624 43.432C 128.624 42.504 128.848 41.688 129.296 40.984C 129.776 40.28 130.4 39.816 131.168 39.592L 140.288 37.096L 140.336 34.984C 140.336 33.384 139.968 32.136 139.232 31.24C 138.496 30.344 137.456 29.896 136.112 29.896C 135.216 29.896 134.272 30.104 133.28 30.52C 132.288 30.936 131.312 31.528 130.352 32.296L 130.112 32.152L 129.536 30.088C 131.04 29.224 132.544 28.456 134.048 27.784C 135.584 27.08 136.688 26.728 137.36 26.728C 139.44 26.728 141.072 27.272 142.256 28.36C 143.44 29.448 144.032 30.968 144.032 32.92C 144.032 33.624 143.92 35.064 143.696 37.24C 143.344 40.76 143.168 43 143.168 43.96C 143.168 44.664 143.344 45.208 143.696 45.592C 144.048 45.976 144.528 46.168 145.136 46.168C 145.648 46.168 146.176 46.056 146.72 45.832C 147.264 45.576 147.696 45.288 148.016 44.968L 148.688 45.736C 148.208 46.536 147.584 47.32 146.816 48.088C 146.08 48.824 145.312 49.32 144.512 49.576ZM 135.584 46.12C 136.192 46.12 136.896 45.912 137.696 45.496C 138.528 45.048 139.28 44.488 139.952 43.816L 140.192 38.92L 133.664 40.888C 132.736 41.176 132.272 41.848 132.272 42.904C 132.272 43.832 132.576 44.6 133.184 45.208C 133.824 45.816 134.624 46.12 135.584 46.12ZM 159.72 49.576C 158.376 49.576 157 49.48 155.592 49.288C 154.216 49.128 153.528 49.032 153.528 49L 153.096 48.616L 153.096 18.952C 153.096 17.224 152.504 16.36 151.32 16.36C 151.064 16.36 150.84 16.376 150.648 16.408C 150.456 16.44 150.328 16.472 150.264 16.504L 150.12 16.36L 150.312 14.776C 151.688 14.584 153.112 14.328 154.584 14.008C 156.056 13.688 157 13.48 157.416 13.384L 157.704 14.008C 157.48 14.328 157.272 15.96 157.08 18.904C 156.888 21.816 156.728 25.544 156.6 30.088C 158.04 29.064 159.272 28.248 160.296 27.64C 161.352 27.032 162.056 26.728 162.408 26.728C 164.2 26.728 165.8 27.16 167.208 28.024C 168.616 28.888 169.704 30.104 170.472 31.672C 171.272 33.208 171.672 34.984 171.672 37C 171.672 39.304 171.128 41.416 170.04 43.336C 168.984 45.256 167.544 46.776 165.72 47.896C 163.896 49.016 161.896 49.576 159.72 49.576ZM 161.064 46.936C 163.208 46.936 164.888 46.216 166.104 44.776C 167.352 43.304 167.976 41.304 167.976 38.776C 167.976 37.176 167.688 35.704 167.112 34.36C 166.568 33.016 165.8 31.96 164.808 31.192C 163.848 30.392 162.792 29.992 161.64 29.992C 161 29.992 160.184 30.248 159.192 30.76C 158.2 31.24 157.304 31.848 156.504 32.584L 156.36 45.928C 156.936 46.216 157.672 46.456 158.568 46.648C 159.464 46.84 160.296 46.936 161.064 46.936ZM 181.599 49.576C 180.575 49.576 179.631 49.496 178.767 49.336C 177.935 49.208 177.279 49.064 176.799 48.904C 176.319 48.744 176.015 48.632 175.887 48.568L 175.743 48.232C 175.839 47.752 175.951 46.76 176.079 45.256C 176.207 43.752 176.287 42.6 176.319 41.8L 177.999 41.56C 177.999 43.672 178.351 45.16 179.055 46.024C 179.759 46.888 180.959 47.32 182.655 47.32C 183.871 47.32 184.895 47.048 185.727 46.504C 186.559 45.96 186.975 45.288 186.975 44.488C 186.975 43.688 186.591 42.968 185.823 42.328C 185.087 41.656 183.615 40.728 181.407 39.544C 179.583 38.616 178.255 37.672 177.423 36.712C 176.591 35.752 176.175 34.696 176.175 33.544C 176.175 32.264 176.559 31.112 177.327 30.088C 178.095 29.032 179.151 28.216 180.495 27.64C 181.839 27.032 183.343 26.728 185.007 26.728C 185.775 26.728 186.511 26.792 187.215 26.92C 187.919 27.016 188.495 27.128 188.943 27.256C 189.391 27.384 189.679 27.464 189.807 27.496L 189.903 27.736C 189.839 28.056 189.695 28.792 189.471 29.944C 189.247 31.064 189.087 32.28 188.991 33.592L 187.215 33.736C 187.215 33.64 187.231 33.448 187.263 33.16C 187.295 32.872 187.311 32.6 187.311 32.344C 187.311 31.192 186.991 30.36 186.351 29.848C 185.743 29.304 184.751 29.032 183.375 29.032C 182.287 29.032 181.359 29.288 180.591 29.8C 179.855 30.312 179.487 30.936 179.487 31.672C 179.487 32.44 179.807 33.16 180.447 33.832C 181.119 34.504 182.191 35.224 183.663 35.992C 186.255 37.368 188.015 38.536 188.943 39.496C 189.903 40.424 190.383 41.496 190.383 42.712C 190.383 43.928 189.983 45.064 189.183 46.12C 188.383 47.176 187.295 48.024 185.919 48.664C 184.575 49.272 183.135 49.576 181.599 49.576Z"/>
<path id="path2_fill" d="M 41 20.5C 41 31.8218 31.8218 41 20.5 41C 9.17816 41 0 31.8218 0 20.5C 0 9.17816 9.17816 0 20.5 0C 31.8218 0 41 9.17816 41 20.5Z"/>
<path id="path3_fill" d="M 0 2C 0 0.895431 0.895431 0 2 0L 23 0C 24.1046 0 25 0.895431 25 2L 25 10C 25 11.1046 24.1046 12 23 12L 2 12C 0.895431 12 0 11.1046 0 10L 0 2Z"/>
<path id="path4_stroke_2x" d="M 2 1L 23 1L 23 -1L 2 -1L 2 1ZM 24 2L 24 10L 26 10L 26 2L 24 2ZM 23 11L 2 11L 2 13L 23 13L 23 11ZM 1 10L 1 2L -1 2L -1 10L 1 10ZM 2 11C 1.44772 11 1 10.5523 1 10L -1 10C -1 11.6569 0.343146 13 2 13L 2 11ZM 24 10C 24 10.5523 23.5523 11 23 11L 23 13C 24.6569 13 26 11.6569 26 10L 24 10ZM 23 1C 23.5523 1 24 1.44772 24 2L 26 2C 26 0.343146 24.6569 -1 23 -1L 23 1ZM 2 -1C 0.343146 -1 -1 0.343146 -1 2L 1 2C 1 1.44772 1.44772 1 2 1L 2 -1Z"/>
<path id="path5_fill" d="M 0 0.857143C 0 0.383756 0.383756 0 0.857143 0L 14.1429 0C 14.6162 0 15 0.383756 15 0.857143L 15 0.857143C 15 1.33053 14.6162 1.71429 14.1429 1.71429L 0.857143 1.71429C 0.383756 1.71429 0 1.33053 0 0.857143L 0 0.857143Z"/>
<path id="path6_fill" d="M 1.66667 0.857143C 1.66667 1.33053 1.29357 1.71429 0.833333 1.71429C 0.373096 1.71429 0 1.33053 0 0.857143C 0 0.383756 0.373096 0 0.833333 0C 1.29357 0 1.66667 0.383756 1.66667 0.857143Z"/>
</defs>
</svg>
