<svg width="1600" height="1552" viewBox="0 0 1600 1552" version="1.1" xmlns="http://www.w3.org/2000/svg" xmlns:xlink="http://www.w3.org/1999/xlink">
<title>Open Source</title>
<desc>Created using Figma</desc>
<g id="Canvas" transform="matrix(4 0 0 4 616 744)">
<g id="Open Source">
<use xlink:href="#path0_fill" transform="translate(-154 -186)" fill="#3DA639"/>
<mask id="mask0_outline_ins">
<use xlink:href="#path0_fill" fill="white" transform="translate(-154 -186)"/>
</mask>
<g mask="url(#mask0_outline_ins)">
<use xlink:href="#path1_stroke_2x" transform="translate(-154 -186)" fill="#1E531D"/>
</g>
</g>
</g>
<defs>
<path id="path0_fill" d="M 200 0C 89.5431 0 0 89.5431 0 200C 0 286.019 54.3041 359.354 130.5 387.594L 185.5 262.35C 157.138 255.781 136 230.359 136 200C 136 164.654 164.654 136 200 136C 235.346 136 264 164.654 264 200C 264 230.359 242.862 255.781 214.5 262.35L 269.5 387.594C 345.696 359.354 400 286.019 400 200C 400 89.5431 310.457 0 200 0Z"/>
<path id="path1_stroke_2x" d="M 130.5 387.594L 127.025 396.971L 135.865 400.247L 139.656 391.615L 130.5 387.594ZM 269.5 387.594L 260.344 391.615L 264.135 400.247L 272.975 396.971L 269.5 387.594ZM 185.5 262.35L 194.656 266.371L 199.505 255.33L 187.757 252.608L 185.5 262.35ZM 214.5 262.35L 212.243 252.608L 200.495 255.33L 205.344 266.371L 214.5 262.35ZM 10 200C 10 95.0659 95.0659 10 200 10L 200 -10C 84.0202 -10 -10 84.0202 -10 200L 10 200ZM 200 10C 304.934 10 390 95.0659 390 200L 410 200C 410 84.0202 315.98 -10 200 -10L 200 10ZM 133.975 378.217C 61.5738 351.384 10 281.702 10 200L -10 200C -10 290.335 47.0344 367.325 127.025 396.971L 133.975 378.217ZM 390 200C 390 281.702 338.426 351.384 266.025 378.217L 272.975 396.971C 352.966 367.325 410 290.335 410 200L 390 200ZM 146 200C 146 170.177 170.177 146 200 146L 200 126C 159.131 126 126 159.131 126 200L 146 200ZM 200 146C 229.823 146 254 170.177 254 200L 274 200C 274 159.131 240.869 126 200 126L 200 146ZM 187.757 252.608C 163.827 247.066 146 225.603 146 200L 126 200C 126 235.116 150.449 264.496 183.243 272.092L 187.757 252.608ZM 254 200C 254 225.603 236.173 247.066 212.243 252.608L 216.757 272.092C 249.551 264.496 274 235.116 274 200L 254 200ZM 176.344 258.33L 121.344 383.573L 139.656 391.615L 194.656 266.371L 176.344 258.33ZM 278.656 383.573L 223.656 258.33L 205.344 266.371L 260.344 391.615L 278.656 383.573Z"/>
</defs>
</svg>
